<?xml version="1.0" encoding="UTF-8" standalone="no"?>
<svg
   viewBox="0 0 48 48"
   version="1.1"
   id="svg39"
   sodipodi:docname="logo.svg"
   xml:space="preserve"
   inkscape:export-filename="logo.png"
   inkscape:export-xdpi="1800"
   inkscape:export-ydpi="1800"
   inkscape:version="1.2.1 (9c6d41e410, 2022-07-14, custom)"
   xmlns:inkscape="http://www.inkscape.org/namespaces/inkscape"
   xmlns:sodipodi="http://sodipodi.sourceforge.net/DTD/sodipodi-0.dtd"
   xmlns="http://www.w3.org/2000/svg"
   xmlns:svg="http://www.w3.org/2000/svg"><sodipodi:namedview
     id="namedview41"
     pagecolor="#505050"
     bordercolor="#eeeeee"
     borderopacity="1"
     inkscape:showpageshadow="0"
     inkscape:pageopacity="0"
     inkscape:pagecheckerboard="0"
     inkscape:deskcolor="#505050"
     showgrid="false"
     inkscape:zoom="8.9566859"
     inkscape:cx="42.147286"
     inkscape:cy="30.703321"
     inkscape:window-width="1920"
     inkscape:window-height="1051"
     inkscape:window-x="0"
     inkscape:window-y="0"
     inkscape:window-maximized="1"
     inkscape:current-layer="svg39" /><defs
     id="defs5"><filter
       id="a"
       x="-0.04734411"
       y="-0.081999999"
       width="1.0946882"
       height="1.164"><feGaussianBlur
         stdDeviation=".205"
         id="feGaussianBlur2" /></filter><linearGradient
       x1="500"
       y1="0"
       x2="500"
       y2="992.58339"
       id="linearGradient-1"
       gradientUnits="userSpaceOnUse"
       gradientTransform="matrix(0.06021053,0,0,0.06021053,-33.578951,28.789477)"><stop
         stop-color="#2AABEE"
         offset="0%"
         id="stop893" /><stop
         stop-color="#229ED9"
         offset="100%"
         id="stop895" /></linearGradient></defs><path
     fill="#e9b96e"
     stroke="#573a0d"
     d="M3.464 22v12L24.5 46.145l21-12.415V22.269L24.249 10 3.464 22z"
     id="path7" /><g
     stroke="#2e3436"
     id="g13"><path
       fill="#2e3436"
       d="m8.5 30.907-2-1.155v6L17.321 42v-2l-1.732-1v-2L13.5 35.794v-4l-5-2.887v2z"
       id="path9" /><path
       fill="#555753"
       d="m6.928 36 3.464-2 3.464 2 1.644.949v2l2 1.155v2L6.928 36z"
       id="path11" /></g><g
     stroke-linejoin="round"
     id="g21"><path
       fill="#fce94f"
       stroke="#625802"
       d="m25.981 19 5.519 3.187v2L38.094 28l3.469-2 3.938-2.269v2.539-4L32.909 15l-6.928 4z"
       id="path15" /><path
       fill="#e9b96e"
       stroke="#573a0d"
       stroke-dashoffset=".5"
       d="m24.84 18.341 8.66-5v2l-8.66 5v-2z"
       id="path17" /><path
       fill="#73d216"
       stroke="#325b09"
       d="M25.981 9 3.464 22 17.5 30.104l14-7.917-6.66-3.845 8.66-5L25.981 9z"
       id="path19" /></g><path
     fill="#729fcf"
     stroke="#19314b"
     d="M17.5 32.104v2l1.553.896v2l5.447 3.145 12-7.072v-2.147l2-1.155v-1.544l-7-4.041-14 7.917z"
     id="path23" /><path
     fill="#2e3436"
     d="m13.856 20 6.928 4-6.928 4-6.928-4 6.928-4z"
     filter="url(#a)"
     opacity=".25"
     id="path25" /><path
     fill="#c17d11"
     stroke="#8f5902"
     d="m12.124 23 1.732 1 1.732-1v-6l-1.732-1-1.732 1v6z"
     id="path27" /><path
     fill="#4e9a06"
     stroke="#316004"
     d="M6.5 15.753 13.856 20l6.644-3.836V7.836L13.856 4 6.5 8.247v7.506z"
     id="path29"
     style="fill:#229ed9;fill-opacity:1" /><path
     fill="#2e3436"
     d="m13.856 20 5.196 3-5.196 3-5.196-3 5.196-3z"
     filter="url(#a)"
     opacity=".25"
     transform="translate(24.249)"
     id="path31" /><path
     fill="#4e9a06"
     stroke="#316004"
     d="m36.5 23.073 1.605.927 1.395-.805v-8.389L38.105 14 36.5 15.073v8z"
     id="path33" /><path
     fill="none"
     stroke="#ef2929"
     stroke-dasharray=".5 .5"
     stroke-dashoffset=".25"
     stroke-width=".5"
     d="m12.124 33-.866-.5"
     id="path35" /><path
     fill="#888a85"
     stroke="#2e3436"
     stroke-dashoffset=".5"
     d="m45.5 26.731-4 2.309v1l-2 1.155v2l-2 1.155v4l8-4.619v-7z"
     id="path37" /><path
     d="m 8.1348345,11.435376 c 2.8865235,-1.257613 4.8113245,-2.0867085 5.7744045,-2.4872868 2.749785,-1.1437306 3.321167,-1.3424089 3.693586,-1.3489698 0.08191,-0.00148 0.265055,0.018855 0.383688,0.1151197 0.100172,0.081282 0.127733,0.1910837 0.140922,0.2681483 0.01319,0.077061 0.02961,0.2526205 0.01655,0.389794 -0.149011,1.5656815 -0.793783,5.3651746 -1.121807,7.1187636 -0.138799,0.742009 -0.412098,0.990801 -0.676684,1.015149 -0.575006,0.05292 -1.011638,-0.380004 -1.56856,-0.745073 -0.871472,-0.571261 -1.363797,-0.926872 -2.209712,-1.484317 -0.9776,-0.644224 -0.343862,-0.998301 0.21327,-1.576961 0.145803,-0.151438 2.679292,-2.455842 2.728327,-2.664887 0.0061,-0.02614 0.01182,-0.1236001 -0.04607,-0.1750591 -0.0579,-0.05146 -0.143346,-0.03387 -0.20501,-0.01987 -0.08741,0.01984 -1.479592,0.9400211 -4.176561,2.7605521 -0.395167,0.271357 -0.753098,0.403568 -1.073792,0.39664 -0.3535377,-0.0077 -1.0336052,-0.199896 -1.5391653,-0.364233 -0.6200895,-0.201567 -1.112925,-0.308138 -1.0700094,-0.65046 0.022349,-0.178303 0.267892,-0.360653 0.7366188,-0.547049 z"
     id="Path-3"
     fill="#ffffff"
     style="fill-rule:evenodd;stroke:none;stroke-width:0.0198032" /></svg>
